Patient4_TMGait_0pt7_02_right_12_EMG.mot
version=1
nRows=13
nColumns=33
inDegrees=no
endheader
time	1LAddLong	2LGlutMax	3LGlutMed	4LIliopsoas	5LSemiMemb	6LBicFemLong	7LRecFem	8LVastMed	9LVastLat	10LGasMed	11LTibAnt	12lTibPost	13LPeroneusLong	14LSol	15LExtDigLong	16LFlexDigLong	17RAddLong	18RGlutMax	19RGlutMed	20RIliopsoas	21RSemiMemb	22RBicFemLong	23RRecFem	24RVastMed	25RVastLat	26RGasMed	27RTibAnt	28RTibPost	29RPeroneusLong	30RSol	31RExtDigLong	32RFlexDigLong
13.625	0.048523	0.38788	-0.079803	0.018921	0.016937	0.018158	-0.045624	-0.012207	0.10986	-0.014801	0.005188	0.01236	0.012512	0.070343	-0.010071	0.16266	-0.000153	-0.64468	0.30853	0.023499	0.053101	-0.072174	-0.37796	0.017242	-0.016785	-0.009155	-0.018158	0.10544	-0.59341	-0.23254	-0.004272	-0.011139
13.626	0.036163	0.23895	-0.14099	0.009766	0.059967	-0.2829	-0.0383	-0.013275	0.18494	-0.017242	0.003815	0.006256	0.036774	0.13214	0.006104	-0.24674	-0.018463	-0.62912	0.15121	0.044708	0.07309	-0.048065	-0.37445	0.00412	-0.022736	-0.013275	-0.00061	0.013885	-0.58166	0.12039	-0.000763	-0.010223
13.627	0.017242	0.15732	-0.15472	0.005035	0.10239	-0.54474	-0.014038	0	0.18387	-0.016632	0.005646	0.007935	0.033417	0.13519	0.003967	0.11765	-0.019989	-0.49164	0.19898	-0.022278	0.092621	-0.018921	-0.38132	0.004578	-0.031281	-0.025482	0.029602	-0.000916	-0.23377	0.25085	-0.003357	-0.00946
13.628	0.019989	0.13001	-0.13016	0.0177	0.10315	-0.5719	0.016632	-0.005341	0.15808	-0.00473	0.00061	0.002899	0.037842	0.18127	-0.008087	0.3479	-0.005798	-0.50034	0.26032	-0.067596	0.112	-0.088501	-0.35889	0.012207	-0.018616	-0.040741	0.035706	-0.000305	-0.007782	0.14358	0.000458	-0.013428
13.629	0.03067	0.20783	-0.13184	0.011292	0.074463	-0.20035	0.059357	-0.006561	0.13855	0.002289	-0.005493	0.006409	0.030212	0.20157	-0.006561	0.16541	0.007935	-0.47394	0.24399	-0.23529	0.12131	-0.13168	-0.36972	0.004883	-0.03479	-0.047302	0.021515	-0.007324	0.29831	0.019379	0.001068	-0.013428
13.63	0.035095	0.22964	-0.090179	-0.009155	0.02182	0.16357	0.024109	-0.011749	0.1326	-0.001678	-0.004578	-0.00412	0.044861	0.12161	0.002289	-0.080414	-0.013428	-0.32074	0.16983	-0.16907	0.059052	-0.1062	-0.42831	0.065155	-0.03006	-0.029755	-0.005646	-0.033112	0.45731	-0.27573	0.001831	-0.013275
13.631	0.054626	0.25024	-0.067139	-0.005493	0.030975	0.2739	-0.009155	-0.022125	0.19501	-0.015564	-0.009766	-0.014954	0.053101	-0.033722	-0.001221	-0.23071	-0.014496	-0.20264	0.056152	-0.077209	0.074158	0.032654	-0.39948	0.042267	-0.015869	-0.024414	0.00061	-0.032349	0.27832	-0.46799	-0.003052	-0.020294
13.632	0.056152	0.30991	-0.073547	0.021515	0.059052	0.2948	-0.033112	-0.014191	0.18997	-0.010986	-0.011597	-0.012817	0.038452	-0.12833	-0.003357	0.25543	-0.00473	-0.13199	-0.00351	0.077515	0.13626	0.07309	-0.37277	0.046387	-0.03479	-0.018768	0.028076	-0.039978	0.015106	-0.46692	-0.000763	-0.006866
13.633	0.062408	0.37964	-0.057831	0.017242	0.071869	0.31006	-0.001678	0.015106	0.11993	-0.013428	-0.050812	-0.004425	0.049286	-0.06012	0.001526	0.057831	0.003357	0.030823	-0.10056	0.22003	0.1503	0.07843	-0.33585	-0.001068	-0.027618	-0.014954	0.003357	-0.02533	0.051117	0.48706	0.002594	-0.011902
13.634	0.015411	0.39414	-0.054474	0.027161	0.066681	0.28336	0.036163	0.031281	0.092316	-0.017242	-0.067749	-0.00351	0.020752	-0.053101	0.017242	-0.010834	-0.001373	0.036774	0.031433	0.21759	0.17151	0.13367	-0.33157	-0.022583	-0.048523	-0.005188	0.039063	0.027618	0.13214	0.67017	-0.003357	-0.004578
13.635	-0.036316	0.47195	-0.053253	0.015411	-0.003204	0.28427	0.052032	0.054932	0.006104	0.000763	-0.046692	-0.000458	-0.019836	-0.079193	0.096436	-0.055084	0.007782	0.064697	-0.005798	0.20218	0.15045	-0.020142	-0.29007	-0.021515	-0.0354	-0.011597	0.016022	0.003204	0.10208	0.28275	-0.003052	-0.015106
13.636	-0.075378	0.50034	-0.055389	0.003357	-0.077667	0.46753	0.048676	0.036011	-0.16052	-0.00946	-0.003052	-0.001678	-0.00412	-0.049286	0.07431	-0.06546	0.016022	0.10529	-0.024261	0.074768	0.15182	-0.1178	-0.25925	-0.021057	-0.046844	-0.009155	-0.020294	0.016174	0.025024	-0.030212	-0.002899	-0.016632
13.637	-0.077057	0.39261	-0.065155	-0.005493	-0.17395	0.47073	0.04715	0.030518	-0.11231	-0.038147	0.11414	-0.002136	0.05249	0.017548	-0.006714	-0.074005	-0.034637	0.13412	-0.013733	0.029602	0.18265	-0.17303	-0.31754	-0.064392	-0.049438	0.000305	-0.021057	0.003357	0.007629	0.00473	-0.004578	-0.020142
